Coordinates
version=1
nRows=27
nColumns=38
inDegrees=no

Units are S.I. units (second, meters, Newtons, ...)
If the header above contains a line with 'inDegrees', this indicates whether rotational values are in degrees (yes) or radians (no).

endheader
time	pelvis_tilt	pelvis_list	pelvis_rotation	pelvis_tx	pelvis_ty	pelvis_tz	hip_flexion_r	hip_adduction_r	hip_rotation_r	knee_angle_r	ankle_angle_r	subtalar_angle_r	mtp_angle_r	hip_flexion_l	hip_adduction_l	hip_rotation_l	knee_angle_l	ankle_angle_l	subtalar_angle_l	mtp_angle_l	lumbar_extension	lumbar_bending	lumbar_rotation	arm_flex_r	arm_add_r	arm_rot_r	elbow_flex_r	pro_sup_r	wrist_flex_r	wrist_dev_r	arm_flex_l	arm_add_l	arm_rot_l	elbow_flex_l	pro_sup_l	wrist_flex_l	wrist_dev_l
1.59	2.90123	1.40398	-1.44787	0.715426	0.960341	1.01369	-0.21644	0.0437188	-0.112762	0.620641	-0.0797692	0	0	0.211812	-0.0693929	-0.436104	0.441418	-0.215404	0	0	-0.305768	0.179675	0.404977	-0.288074	-0.682369	-0.146832	1.79796	0.31511	0	0	0.493945	-0.462567	0.585018	1.11983	0.625882	0	0
1.6	2.92659	1.40011	-1.47984	0.714622	0.971305	1.01255	-0.21972	0.0337362	-0.102762	0.645564	-0.0861067	0	0	0.205284	-0.0668554	-0.448721	0.450631	-0.230514	0	0	-0.309982	0.172516	0.407267	-0.286123	-0.680815	-0.14553	1.79654	0.3165	0	0	0.49444	-0.463735	0.585106	1.12022	0.625862	0	0
1.61	2.96714	1.39663	-1.52584	0.713667	0.98201	1.01187	-0.219421	0.0211207	-0.0903493	0.675725	-0.0956652	0	0	0.20385	-0.0629855	-0.46201	0.467342	-0.252102	0	0	-0.314454	0.162173	0.407438	-0.282614	-0.678558	-0.142996	1.79382	0.318933	0	0	0.495018	-0.464532	0.584104	1.11984	0.626915	0	0
1.62	3.01262	1.39396	-1.57511	0.712512	0.992564	1.01145	-0.214728	0.00778441	-0.0755443	0.711317	-0.107576	0	0	0.203197	-0.0583294	-0.470474	0.486869	-0.27453	0	0	-0.31814	0.151089	0.405855	-0.279366	-0.675371	-0.141156	1.79109	0.321865	0	0	0.495691	-0.464671	0.582572	1.11848	0.629385	0	0
1.63	3.05597	1.39141	-1.62061	0.711125	1.00303	1.01128	-0.206629	-0.00499001	-0.0595168	0.751345	-0.125074	0	0	0.200104	-0.0524186	-0.47421	0.503312	-0.290734	0	0	-0.321436	0.140806	0.402954	-0.2768	-0.671801	-0.140399	1.78856	0.325652	0	0	0.496481	-0.46411	0.580954	1.11647	0.632876	0	0
1.64	3.09057	1.38855	-1.65619	0.709479	1.0135	1.01126	-0.195842	-0.0163468	-0.0439447	0.794476	-0.151599	0	0	0.194911	-0.0452011	-0.470899	0.516103	-0.298515	0	0	-0.324686	0.132762	0.399512	-0.275286	-0.668949	-0.140423	1.78656	0.331196	0	0	0.497236	-0.462828	0.579665	1.11388	0.637343	0	0
1.65	3.11404	1.38509	-1.67985	0.707534	1.02401	1.01135	-0.183031	-0.0260807	-0.0298047	0.839524	-0.18314	0	0	0.189027	-0.0382046	-0.460593	0.530475	-0.297116	0	0	-0.328613	0.127691	0.395961	-0.275206	-0.667639	-0.141196	1.78575	0.336634	0	0	0.49758	-0.460727	0.5784	1.11116	0.64041	0	0
1.66	3.12913	1.38088	-1.69573	0.70549	1.03447	1.01155	-0.168367	-0.0347688	-0.0165084	0.886229	-0.224596	0	0	0.18257	-0.0337184	-0.451159	0.54786	-0.289494	0	0	-0.333921	0.124436	0.393254	-0.276094	-0.667578	-0.142578	1.78632	0.34183	0	0	0.497071	-0.458506	0.576504	1.10967	0.64194	0	0
1.67	3.13991	1.37552	-1.7087	0.703461	1.04466	1.01189	-0.152223	-0.0430655	-0.0028535	0.934735	-0.26711	0	0	0.174625	-0.0312452	-0.447557	0.565819	-0.279816	0	0	-0.341312	0.121736	0.391783	-0.277067	-0.669138	-0.144325	1.78838	0.344023	0	0	0.496492	-0.456952	0.574797	1.10969	0.642808	0	0
1.68	-3.13267	1.37029	-1.72174	0.701564	1.05459	1.01229	-0.134199	-0.0505554	0.0104629	0.984216	-0.305874	0	0	0.166259	-0.0288202	-0.448128	0.5821	-0.27023	0	0	-0.349011	0.118877	0.390463	-0.277939	-0.671027	-0.146195	1.79125	0.344342	0	0	0.496341	-0.456542	0.573882	1.11071	0.645255	0	0
1.69	-3.12185	1.36517	-1.73469	0.699813	1.0643	1.0127	-0.115133	-0.056933	0.0225504	1.03379	-0.334444	0	0	0.157002	-0.0259388	-0.452149	0.595476	-0.261896	0	0	-0.35656	0.115787	0.388913	-0.278663	-0.672907	-0.148079	1.79442	0.343493	0	0	0.496742	-0.456815	0.573827	1.11249	0.647005	0	0
1.7	-3.11203	1.3604	-1.7462	0.698119	1.07384	1.01314	-0.0950367	-0.0622038	0.0328099	1.08241	-0.361817	0	0	0.146631	-0.0227755	-0.458339	0.606092	-0.253187	0	0	-0.36377	0.112894	0.38728	-0.279889	-0.674551	-0.150449	1.79754	0.343698	0	0	0.49765	-0.457543	0.574756	1.115	0.647327	0	0
1.71	-3.1048	1.3568	-1.75435	0.696401	1.08328	1.01357	-0.0739109	-0.0659871	0.0403466	1.12793	-0.387339	0	0	0.136639	-0.0196641	-0.465504	0.614927	-0.244299	0	0	-0.369565	0.111075	0.385056	-0.28151	-0.676075	-0.153146	1.80048	0.344803	0	0	0.498474	-0.458603	0.576445	1.11764	0.646098	0	0
1.72	-3.10307	1.35366	-1.75621	0.694585	1.09258	1.01406	-0.053137	-0.0681895	0.0448989	1.16911	-0.406854	0	0	0.12665	-0.0173655	-0.471626	0.622898	-0.235411	0	0	-0.374734	0.111041	0.382191	-0.282899	-0.677041	-0.15585	1.80304	0.345412	0	0	0.499102	-0.459699	0.578459	1.12021	0.643807	0	0
1.73	-3.10783	1.35071	-1.75016	0.692671	1.10184	1.0146	-0.0337229	-0.0687019	0.0463692	1.20532	-0.413978	0	0	0.116875	-0.0160501	-0.472953	0.631264	-0.226152	0	0	-0.379592	0.113239	0.378532	-0.28474	-0.677771	-0.158963	1.80582	0.344856	0	0	0.499675	-0.460646	0.580723	1.12276	0.641174	0	0
1.74	-3.11559	1.34799	-1.7398	0.690755	1.1111	1.01525	-0.0158865	-0.0681558	0.0450483	1.23658	-0.405675	0	0	0.106413	-0.0154028	-0.47235	0.637758	-0.217679	0	0	-0.383848	0.116645	0.373971	-0.286715	-0.678272	-0.161866	1.80808	0.344313	0	0	0.500039	-0.461495	0.582926	1.12505	0.638823	0	0
1.75	-3.12674	1.34567	-1.72505	0.688891	1.12032	1.01594	0.00099849	-0.0663313	0.0413097	1.26316	-0.383625	0	0	0.0966422	-0.015884	-0.469497	0.644475	-0.209782	0	0	-0.387353	0.121176	0.368735	-0.288701	-0.678288	-0.164694	1.80981	0.343869	0	0	0.500387	-0.462361	0.585187	1.12723	0.636427	0	0
1.76	-3.14041	1.34416	-1.70691	0.687116	1.12947	1.0166	0.0181446	-0.0634867	0.0359128	1.28554	-0.355773	0	0	0.0881474	-0.0173994	-0.465644	0.651266	-0.202421	0	0	-0.389661	0.126735	0.363091	-0.290924	-0.677607	-0.167765	1.81123	0.343237	0	0	0.500896	-0.463217	0.587724	1.12905	0.63473	0	0
1.77	3.12898	1.34333	-1.68812	0.685441	1.13854	1.01728	0.0358077	-0.0603162	0.0299887	1.30365	-0.330078	0	0	0.0797484	-0.0190019	-0.463743	0.655024	-0.19626	0	0	-0.390839	0.132411	0.357079	-0.292793	-0.676579	-0.17012	1.81167	0.343338	0	0	0.501507	-0.463957	0.590107	1.13036	0.632837	0	0
1.78	3.11529	1.34283	-1.66961	0.68389	1.14757	1.01802	0.0535492	-0.0569118	0.024757	1.31734	-0.309667	0	0	0.0711079	-0.0203252	-0.46087	0.657772	-0.190401	0	0	-0.391488	0.137972	0.351119	-0.294314	-0.675043	-0.171935	1.81149	0.344304	0	0	0.501665	-0.464626	0.591834	1.1315	0.631872	0	0
1.79	3.10233	1.3422	-1.65254	0.682483	1.15655	1.01891	0.0707132	-0.0532945	0.0209148	1.32634	-0.29373	0	0	0.0611174	-0.0211867	-0.457225	0.659327	-0.18458	0	0	-0.392103	0.143001	0.345536	-0.295244	-0.673249	-0.172963	1.81062	0.345584	0	0	0.501453	-0.464936	0.592473	1.13201	0.632752	0	0
1.8	3.09005	1.34087	-1.63752	0.681237	1.16543	1.01995	0.0866618	-0.0492435	0.0190955	1.33083	-0.282999	0	0	0.0495311	-0.0212325	-0.45486	0.657496	-0.180349	0	0	-0.393554	0.147265	0.340939	-0.295244	-0.66901	-0.17361	1.80868	0.352683	0	0	0.501096	-0.464971	0.592348	1.1323	0.633334	0	0
1.81	3.07927	1.33917	-1.62484	0.680171	1.17426	1.02116	0.10163	-0.0449535	0.0182177	1.33107	-0.272331	0	0	0.0367829	-0.0205737	-0.452638	0.654787	-0.175645	0	0	-0.395735	0.1508	0.337014	-0.295358	-0.666399	-0.174235	1.80716	0.358226	0	0	0.500593	-0.464974	0.591666	1.13261	0.634037	0	0
1.82	3.06926	1.33748	-1.61379	0.67925	1.18306	1.02241	0.116185	-0.0404368	0.0180278	1.32736	-0.263986	0	0	0.0234349	-0.0194077	-0.451677	0.650328	-0.171805	0	0	-0.398164	0.153861	0.333961	-0.295629	-0.664216	-0.174575	1.80588	0.361748	0	0	0.500135	-0.464937	0.590909	1.13279	0.634634	0	0
1.83	3.05947	1.33588	-1.6032	0.678319	1.19174	1.02365	0.130508	-0.0359329	0.0176308	1.31983	-0.257114	0	0	0.00986552	-0.0179576	-0.450251	0.644797	-0.168168	0	0	-0.400746	0.156954	0.331228	-0.296107	-0.662462	-0.175142	1.80507	0.364232	0	0	0.49981	-0.464659	0.590006	1.13275	0.635351	0	0
1.84	3.04999	1.33461	-1.59292	0.67737	1.20027	1.02485	0.14451	-0.0311144	0.0172488	1.30831	-0.251258	0	0	-0.00357311	-0.016327	-0.44795	0.6385	-0.164816	0	0	-0.403422	0.160094	0.328657	-0.296589	-0.661046	-0.175931	1.80478	0.366793	0	0	0.499743	-0.464107	0.588885	1.13257	0.636218	0	0
1.85	3.04129	1.33384	-1.58315	0.676435	1.20869	1.02599	0.158376	-0.0264098	0.0159849	1.29317	-0.246455	0	0	-0.0164187	-0.0144912	-0.445857	0.63132	-0.162011	0	0	-0.405802	0.163203	0.32591	-0.297063	-0.659865	-0.176692	1.80502	0.369308	0	0	0.499911	-0.463546	0.587689	1.13236	0.636656	0	0
